<svg width="32" viewBox="0 0 64 64" xmlns="http://www.w3.org/2000/svg"><g fill="none" fill-rule="evenodd"><path fill="#0DA0A2" d="M0 0h64v64H0z"/><path d="M12.11 17.92c-.748 0-1.37.11-1.87.351l20.454 16.626c.83.404 1.461.404 2.292 0L53.44 18.27c-.487-.235-1.08-.351-1.799-.351H12.11Zm-2.991 2.24c-.1.369-.159.79-.159 1.258v21.24c0 .574.08 1.074.23 1.502l14.49-12.192L9.119 20.16Zm45.78 0L40.32 31.968 54.81 44.16c.153-.437.23-.96.23-1.555v-21.24c0-.445-.049-.85-.141-1.205ZM25.542 33.28 10.88 45.832c.451.166.994.248 1.62.248H51.89c.592 0 1.113-.089 1.549-.248L38.778 33.28c-1.465 1.188-2.954 2.44-4.418 3.599a4.857 4.857 0 0 1-4.4 0c-1.474-1.161-2.953-2.4-4.418-3.599Z" fill="#FFF"/></g></svg>