<svg width="200" height="200" xmlns="http://www.w3.org/2000/svg"><g fill="none" fill-rule="evenodd"><path fill="#0DA0A2" d="M0 0h200v200H0z"/><path d="M37.84 56c-2.334 0-4.277.343-5.84 1.098l63.918 51.955c2.597 1.263 4.567 1.263 7.164 0L167 57.098c-1.522-.734-3.375-1.098-5.62-1.098H37.84Zm-9.344 7A15.133 15.133 0 0 0 28 66.93v66.376c0 1.794.248 3.357.717 4.694L74 99.9 28.496 63Zm143.062 0L126 99.9l45.283 38.1c.476-1.365.717-3.002.717-4.858V66.766c0-1.392-.152-2.654-.441-3.766Zm-91.74 41L34 143.224c1.41.52 3.108.776 5.06.776h123.1c1.85 0 3.479-.277 4.84-.776L121.182 104c-4.579 3.712-9.233 7.625-13.806 11.247a15.179 15.179 0 0 1-13.75 0c-4.607-3.63-9.228-7.5-13.807-11.247h-.001Z" fill="#FFF"/></g></svg>